<svg xmlns="http://www.w3.org/2000/svg" viewBox="0 0 100 100">
  <style>
    .d {
      fill: #ffe224;
    }
  </style>
  <defs>
    <path id="link"
      d="M 43.75 70 l -23.75 0 a 20 20 90 0 1 0 -40 l 20 0 a 20 20 45 0 1 20 20 a 3.75 3.75 0 0 1 -7.5 0 a 12.5 12.5 45 0 0 -12.5 -12.5 l -20 0 a 12.5 12.5 90 0 0 0 25 l 18.75 0 Z"
      fill-rule="evenodd" />
  </defs>
  <path class="d"
    d="M 0 10 A 10 10 45 0 1 10 0 L 90 0 A 10 10 45 0 1 100 10 L 100 90 A 10 10 45 0 1 90 100 L 10 100 A 10 10 45 0 1 0 90 Z M 5 10 A 5 5 45 0 1 10 5 L 90 5 A 5 5 45 0 1 95 10 L 95 90 A 5 5 45 0 1 90 95 L 10 95 A 5 5 45 0 1 5 90 Z"
    fill-rule="evenodd" />
  <g>
    <use class="d" href="#link" transform="rotate(-45 50 50)" />
    <use class="d" href="#link" transform="rotate(135 50 50)" />
  </g>
</svg>
