<svg xmlns="http://www.w3.org/2000/svg" viewBox="0 0 100 100" style="background-color: #fff;">
  <defs>
    <mask id="outer-circle-mask">
      <rect x="50" y="0" width="50" height="100" fill="#fff" />
    </mask>
    <mask id="inner-circle-mask">
      <rect x="50" y="0" width="50" height="100" fill="#fff" />
    </mask>
    <circle id="outer" mask="url(#outer-circle-mask)" cx="50" cy="50" r="50" />
    <circle id="inner" mask="url(#inner-circle-mask)" cx="50" cy="50" r="45" />
    <mask id="inner-mask">
      <rect x="0" y="0" width="100" height="100" fill="#fff" />
      <use href="#inner" fill="#000" />
    </mask>
    <mask id="inner-inverse-mask">
      <use href="#inner" fill="#fff" />
    </mask>
  </defs>
  <g transform="translate(-22.5, 0)">
    <g id="d" fill="#000">
      <rect x="45" y="0" width="5" height="100" />
      <use href="#outer" mask="url(#inner-mask)" />
    </g>
    <g id="k" mask="url(#inner-inverse-mask)" fill="#000">
      <path d="M 50 50 L 95 0, 100 0, 55 50 Z" />
      <path d="M 50 50 L 95 100, 100 100, 55 50 Z" />
    </g>
    <g id="i" fill="#000">
      <path d="M 70 40 L 75 37.5 L 75 45 L 70 47.5 Z" />
      <path d="M 70 50 L 75 47.5 L 75 60 L 70 62.5 Z" />
    </g>
    <g id="t" mask="url(#inner-inverse-mask)" fill="#000">
      <path d="M 78.25 45 L 100 45 L 100 50 L 78.25 50 Z" />
      <path d="M 82.5 0 L 87.5 0 L 87.5 60 L 82.5 62.5 Z" />
    </g>
  </g>
</svg>
