<svg xmlns="http://www.w3.org/2000/svg" viewBox="0 0 100 100">
  <style>
    .d {
      fill: #ffe224;
    }
  </style>
  <defs>
    <g id="inner">
      <circle cx="27.5" cy="50" r="12.5" />
      <circle cx="47.5" cy="50" r="12.5" />
      <rect height="25" width="20" x="27.5" y="37.5" />
    </g>
    <g id="outer">
      <circle cx="27.5" cy="50" r="20" />
      <circle cx="47.5" cy="50" r="20" />
      <rect height="40" width="20" x="27.5" y="30" />
    </g>
    <g id="outer-mask">
      <rect fill="#ffffff" height="100" width="100" x="0" y="0" />
      <use fill="#000000" href="#inner" />
    </g>
    <mask id="link-mask">
      <use href="#outer-mask" />
      <path d="M 47.5 50 L 67.5 50 L 67.5 70 L 47.5 70 Z" fill="#000000" />
      <circle fill="#ffffff" cx="63.75" cy="50" r="3.75" />
    </mask>
    <mask id="outer-outline-mask">
      <rect fill="#000000" height="100" width="100" x="0" y="0" />
      <rect fill="#ffffff" height="100" rx="10" ry="10" width="100" x="0" y="0" />
    </mask>
    <mask id="inner-outline-mask">
      <rect fill="#ffffff" height="100" mask="url(#outer-outline-mask)" width="100" x="0" y="0" />
      <rect fill="#000000" height="90" rx="10" ry="10" width="90" x="5" y="5" />
    </mask>
    <g id="link">
      <use class="d" href="#outer" mask="url(#link-mask)" />
      <path class="d" d="M 47.5 62.5 L 47.5 70 L 55 70 Z" />
    </g>
  </defs>
  <g>
    <rect class="d" height="100" mask="url(#inner-outline-mask)" width="100" x="0" y="0" />
  </g>
  <g transform="translate(-5 5) rotate(-45 50 50)">
    <use href="#link" />
    <use href="#link" transform="translate(15 0) rotate(180 50 50)" />
  </g>
</svg>
